# xmcd
#
# Track frame offsets: 
#        150
#        14247
#        26502
#        37450
#        49448
#        62996
#        73236
#        85638
#        96547
#        116117
#        127587
#        137487
#        151849
#        167594
#        179727
#        196932
#        209727
#        222125
#
# Disc length: 3348 seconds
#
# Revision: 2
# Processed by: cddbd v1.5.2PL0 Copyright (c) Steve Scherf et al.
# Submitted via: ExactAudioCopy v0.95a4
#
DISCID=170d1212
DTITLE=Koko Taylor - What It Takes: The Chess Years
DYEAR=2001
DGENRE=Blues
TTITLE0=I Got What It Takes
TTITLE1=Don't Mess With The Messer
TTITLE2=Whatever I Am, You Made Me
TTITLE3=I'm A Little Mixed Up
TTITLE4=Wang Dang Doodle
TTITLE5=(I Got) All You Need
TTITLE6=Love Me
TTITLE7=What Came First The Egg Or The Hen
TTITLE8=Insane Asylum
TTITLE9=Fire
TTITLE10=I Don't Care Who Knows
TTITLE11=Twenty-Nine Ways (To My Baby's Door)
TTITLE12=Blue Prelude
TTITLE13=I Need More And More
TTITLE14=Um Huh My Baby
TTITLE15=Bills, Bills And More Bills
TTITLE16=Let Me Love You Baby
TTITLE17=I Got What It Takes
EXTD=Year: 2001 
EXTT0=
EXTT1=
EXTT2=
EXTT3=
EXTT4=
EXTT5=
EXTT6=
EXTT7=
EXTT8=
EXTT9=
EXTT10=
EXTT11=
EXTT12=
EXTT13=
EXTT14=
EXTT15=
EXTT16=
EXTT17=
PLAYORDER=
